<?xml version="1.0" encoding="UTF-8" standalone="no"?>
<svg xmlns:svg="http://www.w3.org/2000/svg" xmlns="http://www.w3.org/2000/svg" width="35.433071" height="35.433071" id="svg2" version="1.1"><g id="layer1" transform="translate(0,-1016.9291)"><path style="fill-opacity:1;stroke:none" d="m 13.999203,1022.2597 0,17.2315 c -0.957301,-0.9573 -2.686204,-0.6739 -3.659021,-0.4132 -2.1155345,0.5667 -3.5145336,2.2613 -3.106979,3.7824 0.4097222,1.519 2.4791675,2.2886 4.592925,1.7223 1.990984,-0.5335 3.130378,-1.7409 3.106978,-3.5122 l 0,-14.0152 12.468331,2.3842 0,12.4449 c -0.957303,-0.9573 -2.68125,-0.8291 -3.620197,-0.5776 -2.066598,0.5538 -3.390834,2.2527 -2.971892,3.8163 0.421039,1.5614 2.426747,2.3768 4.491609,1.8236 1.764054,-0.4727 2.97724,-1.792 3.039435,-3.1407 0.0048,-0.1041 0.0093,-0.2007 0,-0.3039 l 0,-18.8445 z" id="path3217"></path></g></svg>