<?xml version="1.0" encoding="UTF-8" standalone="no"?>
<svg xmlns:svg="http://www.w3.org/2000/svg" xmlns="http://www.w3.org/2000/svg" width="35.433071" height="35.433071" id="svg2" version="1.1"><g id="layer1" transform="translate(0,-1016.9291)"><path style="fill-opacity:1;stroke:none" d="m 13.457388,1020.468 0,19.7161 c -1.09543,-1.0967 -3.073795,-0.7723 -4.1869885,-0.4747 -2.420793,0.6487 -4.0216606,2.5893 -3.5552977,4.3318 0.4688429,1.7363 2.8368988,2.6166 5.2556602,1.9683 2.278254,-0.6114 3.582067,-1.991 3.555296,-4.0165 l 0,-16.0406 14.26745,2.7286 0,14.2407 c -1.095436,-1.0926 -3.06814,-0.948 -4.142572,-0.6596 -2.364797,0.6317 -3.880114,2.5766 -3.40072,4.3657 0.481794,1.7869 2.776913,2.7212 5.139725,2.086 2.018596,-0.5383 3.406841,-2.0503 3.478009,-3.5917 0.0048,-0.1205 0.0093,-0.2294 0,-0.349 l 0,-21.5628 z" id="path3217"></path></g></svg>